<svg xmlns="http://www.w3.org/2000/svg" width="512" height="512" viewBox="0 0 512 512" fill="none">
  <defs>
    <filter id="shadow" x="-20%" y="-20%" width="140%" height="140%">
      <feDropShadow dx="0" dy="2" stdDeviation="2" flood-opacity="0.25"/>
    </filter>
    
  </defs>
  
      <path d="M256 88l20 52 52 20-52 20-20 52-20-52-52-20 52-20 20-52z" fill="#FFE89A"/>
      <path d="M128 256l12 30 30 12-30 12-12 30-12-30-30-12 30-12 12-30z" fill="#C7ECFF"/>
      <path d="M380 256l14 34 34 14-34 14-14 34-14-34-34-14 34-14 14-34z" fill="#FFD1E1"/>
    
</svg>