<svg xmlns="http://www.w3.org/2000/svg" width="512" height="170" viewBox="0 0 512 170" fill="none">
  <defs>
    <filter id="shadow" x="-20%" y="-20%" width="140%" height="140%">
      <feDropShadow dx="0" dy="2" stdDeviation="2" flood-opacity="0.25"/>
    </filter>
    
  </defs>
  
      <rect x="16" y="16" width="480" height="138" rx="14" fill="#DFE8FF" fill-opacity="0.9" filter="url(#shadow)"/>
      <rect x="24" y="24" width="464" height="122" rx="10" fill="none" stroke="#000" stroke-opacity="0.06"/>
    <line x1="-200" y1="24" x2="0" y2="146" stroke="#000" stroke-opacity="0.08"/><line x1="-176" y1="24" x2="24" y2="146" stroke="#000" stroke-opacity="0.08"/><line x1="-152" y1="24" x2="48" y2="146" stroke="#000" stroke-opacity="0.08"/><line x1="-128" y1="24" x2="72" y2="146" stroke="#000" stroke-opacity="0.08"/><line x1="-104" y1="24" x2="96" y2="146" stroke="#000" stroke-opacity="0.08"/><line x1="-80" y1="24" x2="120" y2="146" stroke="#000" stroke-opacity="0.08"/><line x1="-56" y1="24" x2="144" y2="146" stroke="#000" stroke-opacity="0.08"/><line x1="-32" y1="24" x2="168" y2="146" stroke="#000" stroke-opacity="0.08"/><line x1="-8" y1="24" x2="192" y2="146" stroke="#000" stroke-opacity="0.08"/><line x1="16" y1="24" x2="216" y2="146" stroke="#000" stroke-opacity="0.08"/><line x1="40" y1="24" x2="240" y2="146" stroke="#000" stroke-opacity="0.08"/><line x1="64" y1="24" x2="264" y2="146" stroke="#000" stroke-opacity="0.08"/><line x1="88" y1="24" x2="288" y2="146" stroke="#000" stroke-opacity="0.08"/><line x1="112" y1="24" x2="312" y2="146" stroke="#000" stroke-opacity="0.08"/><line x1="136" y1="24" x2="336" y2="146" stroke="#000" stroke-opacity="0.08"/><line x1="160" y1="24" x2="360" y2="146" stroke="#000" stroke-opacity="0.08"/><line x1="184" y1="24" x2="384" y2="146" stroke="#000" stroke-opacity="0.08"/><line x1="208" y1="24" x2="408" y2="146" stroke="#000" stroke-opacity="0.08"/><line x1="232" y1="24" x2="432" y2="146" stroke="#000" stroke-opacity="0.08"/><line x1="256" y1="24" x2="456" y2="146" stroke="#000" stroke-opacity="0.08"/><line x1="280" y1="24" x2="480" y2="146" stroke="#000" stroke-opacity="0.08"/><line x1="304" y1="24" x2="504" y2="146" stroke="#000" stroke-opacity="0.08"/><line x1="328" y1="24" x2="528" y2="146" stroke="#000" stroke-opacity="0.08"/><line x1="352" y1="24" x2="552" y2="146" stroke="#000" stroke-opacity="0.08"/><line x1="376" y1="24" x2="576" y2="146" stroke="#000" stroke-opacity="0.08"/><line x1="400" y1="24" x2="600" y2="146" stroke="#000" stroke-opacity="0.08"/><line x1="424" y1="24" x2="624" y2="146" stroke="#000" stroke-opacity="0.08"/><line x1="448" y1="24" x2="648" y2="146" stroke="#000" stroke-opacity="0.08"/><line x1="472" y1="24" x2="672" y2="146" stroke="#000" stroke-opacity="0.08"/><line x1="496" y1="24" x2="696" y2="146" stroke="#000" stroke-opacity="0.08"/><line x1="520" y1="24" x2="720" y2="146" stroke="#000" stroke-opacity="0.08"/><line x1="544" y1="24" x2="744" y2="146" stroke="#000" stroke-opacity="0.08"/><line x1="568" y1="24" x2="768" y2="146" stroke="#000" stroke-opacity="0.08"/><line x1="592" y1="24" x2="792" y2="146" stroke="#000" stroke-opacity="0.08"/><line x1="616" y1="24" x2="816" y2="146" stroke="#000" stroke-opacity="0.08"/><line x1="640" y1="24" x2="840" y2="146" stroke="#000" stroke-opacity="0.08"/><line x1="664" y1="24" x2="864" y2="146" stroke="#000" stroke-opacity="0.08"/><line x1="688" y1="24" x2="888" y2="146" stroke="#000" stroke-opacity="0.08"/>
</svg>