<svg xmlns="http://www.w3.org/2000/svg" width="512" height="170" viewBox="0 0 512 170" fill="none">
  <defs>
    <filter id="shadow" x="-20%" y="-20%" width="140%" height="140%">
      <feDropShadow dx="0" dy="2" stdDeviation="2" flood-opacity="0.25"/>
    </filter>
    
  </defs>
  
      <rect x="16" y="16" width="480" height="138" rx="14" fill="#FBE6C9" fill-opacity="0.9" filter="url(#shadow)"/>
      <rect x="24" y="24" width="464" height="122" rx="10" fill="none" stroke="#000" stroke-opacity="0.06"/>
    <line x1="44" y1="24" x2="44" y2="146" stroke="#000" stroke-opacity="0.06"/><line x1="68" y1="24" x2="68" y2="146" stroke="#000" stroke-opacity="0.06"/><line x1="92" y1="24" x2="92" y2="146" stroke="#000" stroke-opacity="0.06"/><line x1="116" y1="24" x2="116" y2="146" stroke="#000" stroke-opacity="0.06"/><line x1="140" y1="24" x2="140" y2="146" stroke="#000" stroke-opacity="0.06"/><line x1="164" y1="24" x2="164" y2="146" stroke="#000" stroke-opacity="0.06"/><line x1="188" y1="24" x2="188" y2="146" stroke="#000" stroke-opacity="0.06"/><line x1="212" y1="24" x2="212" y2="146" stroke="#000" stroke-opacity="0.06"/><line x1="236" y1="24" x2="236" y2="146" stroke="#000" stroke-opacity="0.06"/><line x1="260" y1="24" x2="260" y2="146" stroke="#000" stroke-opacity="0.06"/><line x1="284" y1="24" x2="284" y2="146" stroke="#000" stroke-opacity="0.06"/><line x1="308" y1="24" x2="308" y2="146" stroke="#000" stroke-opacity="0.06"/><line x1="332" y1="24" x2="332" y2="146" stroke="#000" stroke-opacity="0.06"/><line x1="356" y1="24" x2="356" y2="146" stroke="#000" stroke-opacity="0.06"/><line x1="380" y1="24" x2="380" y2="146" stroke="#000" stroke-opacity="0.06"/><line x1="404" y1="24" x2="404" y2="146" stroke="#000" stroke-opacity="0.06"/><line x1="428" y1="24" x2="428" y2="146" stroke="#000" stroke-opacity="0.06"/><line x1="452" y1="24" x2="452" y2="146" stroke="#000" stroke-opacity="0.06"/><line x1="24" y1="44" x2="488" y2="44" stroke="#000" stroke-opacity="0.06"/><line x1="24" y1="68" x2="488" y2="68" stroke="#000" stroke-opacity="0.06"/><line x1="24" y1="92" x2="488" y2="92" stroke="#000" stroke-opacity="0.06"/><line x1="24" y1="116" x2="488" y2="116" stroke="#000" stroke-opacity="0.06"/>
</svg>